<?xml version="1.0" encoding="utf-8"?>
<!-- Generator: Adobe Illustrator 20.1.0, SVG Export Plug-In . SVG Version: 6.00 Build 0)  -->
<svg version="1.1" id="Layer_1" xmlns="http://www.w3.org/2000/svg" xmlns:xlink="http://www.w3.org/1999/xlink" x="0px" y="0px"
	 viewBox="0 0 314.6 314.7" style="enable-background:new 0 0 314.6 314.7;" xml:space="preserve">
<style type="text/css">
	.st0{fill-rule:evenodd;clip-rule:evenodd;fill:#C0E7F5;}
	.st1{fill-rule:evenodd;clip-rule:evenodd;fill:#9ADAED;}
	.st2{fill-rule:evenodd;clip-rule:evenodd;fill:#0B763C;}
	.st3{fill-rule:evenodd;clip-rule:evenodd;fill:#DCF1FA;}
	.st4{fill-rule:evenodd;clip-rule:evenodd;fill:#24B34B;}
	.st5{fill-rule:evenodd;clip-rule:evenodd;fill:#9FCC3B;}
	.st6{fill-rule:evenodd;clip-rule:evenodd;fill:#199146;}
	.st7{fill-rule:evenodd;clip-rule:evenodd;fill:#FFFFFF;}
	.st8{fill-rule:evenodd;clip-rule:evenodd;fill:#C4DBE3;}
	.st9{fill-rule:evenodd;clip-rule:evenodd;fill:#DD1F26;}
	.st10{fill-rule:evenodd;clip-rule:evenodd;fill:#00A7DC;}
	.st11{fill-rule:evenodd;clip-rule:evenodd;fill:#312E2F;}
</style>
<g>
	<path class="st0" d="M157.2,314.7c86.7,0,157.3-70.7,157.3-157.3C314.6,70.7,243.9,0,157.2,0C70.7,0,0,70.7,0,157.3
		C0,244,70.7,314.7,157.2,314.7L157.2,314.7z"/>
	<path class="st1" d="M276.1,260.4c-1.5,1.6-2.9,3.4-4.5,4.9v0.1c-0.3,0.3-0.5,0.5-0.8,0.8c-1.8,1.9-3.6,3.7-5.5,5.5l-0.9-2.2
		c-37.3-2.1-100.4-4.5-100.4-4.5L34.4,103.5l39.7-4.9l2.8-25.1l137.4,139.2l38.4,29.5l-42.2-98l19.4-2.4L165.1,61l31.1-3.8l2.2-19.7
		l107.4,108.8l8.8,6.8c0,1.4,0,2.8,0,4.2c0,10.9-1.1,21.6-3.2,31.8l0,0C305.8,216,293.5,240.4,276.1,260.4L276.1,260.4z"/>
	<path class="st2" d="M237.2,236.8c-0.5,1.4-0.9,3-0.9,4.7c0,7.4,6.1,13.3,13.4,13.3c5.4,0,10-3.2,12.1-7.8c2.4,2.2,5.5,3.5,8.9,3.5
		c7.4,0,13.4-6.1,13.4-13.4c0-7.4-6-13.3-13.4-13.3c-0.1,0-0.3,0-0.3,0c0-0.5,0.1-1,0.1-1.5c0-7.4-6-13.3-13.4-13.3
		c-1.3,0-2.6,0.2-3.8,0.5c-1.9-3.8-5.3-6.3-9.2-6.3c-5.9,0-10.7,6-10.7,13.3c0,2.6,0.6,5,1.6,7.1c-0.5,1.5-0.9,3-0.9,4.7
		C234.1,231.5,235.3,234.5,237.2,236.8L237.2,236.8z"/>
	<path class="st2" d="M75.3,236.8c0.6,1.4,0.9,3,0.9,4.7c0,7.4-6,13.3-13.3,13.3c-5.5,0-10-3.2-12.2-7.8c-2.3,2.2-5.5,3.5-8.9,3.5
		c-7.4,0-13.3-6.1-13.3-13.4c0-7.4,6-13.3,13.3-13.3c0.2,0,0.3,0,0.4,0c-0.1-0.5-0.1-1-0.1-1.5c0-7.4,6-13.3,13.3-13.3
		c1.3,0,2.6,0.2,3.8,0.5c1.9-3.8,5.3-6.3,9.2-6.3c6,0,10.7,6,10.7,13.3c0,2.6-0.5,5-1.6,7.1c0.5,1.5,0.8,3,0.8,4.7
		C78.4,231.5,77.2,234.5,75.3,236.8L75.3,236.8z"/>
	<path class="st3" d="M243.2,167.4c-4.9,0-8.9-4.2-8.9-9.5c0-4.9,3.6-9,8.1-9.4c0-0.3-0.1-0.6-0.1-0.9c0-4.1,3.1-7.4,7-7.4
		c1.1,0,2.2,0.3,3.1,0.8c1.5-5.8,7.1-10,13.9-10c7.7,0,14,5.7,14.2,12.9c6.8,0.6,12,5.9,12,12.3c0,5.5-3.8,10.1-9.1,11.8h-8.3
		L243.2,167.4z"/>
	<path class="st4" d="M288.4,244.2c-28.1,42.4-76.4,70.5-131.2,70.5c-54.7,0-103-28.1-131.2-70.5H288.4z"/>
	<path class="st3" d="M41,106.5c-5.1,0-9.4-4.5-9.4-10c0-5.2,3.7-9.4,8.5-10c-0.1-0.3-0.1-0.6-0.1-0.9c0-4.2,3.3-7.7,7.3-7.7
		c1.2,0,2.3,0.3,3.3,0.9c1.6-6.1,7.5-10.7,14.5-10.7c8.1,0,14.7,6.1,15,13.6c7,0.6,12.6,6.1,12.6,12.9c0,5.7-4,10.7-9.5,12.3h-8.7
		L41,106.5z"/>
	<path class="st5" d="M57.5,258.6c0.9,0,1.6-0.8,1.6-1.6c0-1-0.8-1.6-1.6-1.6c-1,0-1.7,0.7-1.7,1.6
		C55.8,257.9,56.5,258.6,57.5,258.6L57.5,258.6z"/>
	<path class="st5" d="M67.2,271.5c1,0,1.6-0.8,1.6-1.6c0-1-0.7-1.6-1.6-1.6c-0.9,0-1.6,0.7-1.6,1.6
		C65.5,270.7,66.3,271.5,67.2,271.5L67.2,271.5z"/>
	<path class="st6" d="M81,259.8c1,0,1.6-0.7,1.6-1.6c0-0.9-0.7-1.6-1.6-1.6c-0.9,0-1.6,0.8-1.6,1.6C79.4,259.1,80.2,259.8,81,259.8
		L81,259.8z"/>
	<path class="st5" d="M85.2,283.5c0.9,0,1.6-0.7,1.6-1.6c0-0.9-0.8-1.6-1.6-1.6c-1,0-1.6,0.8-1.6,1.6
		C83.6,282.8,84.3,283.5,85.2,283.5L85.2,283.5z"/>
	<path class="st5" d="M100.4,272.2c0.9,0,1.6-0.8,1.6-1.6c0-1-0.8-1.7-1.6-1.7c-1,0-1.6,0.8-1.6,1.7
		C98.7,271.5,99.4,272.2,100.4,272.2L100.4,272.2z"/>
	<path class="st6" d="M107.8,295.8c1,0,1.6-0.7,1.6-1.6c0-0.9-0.7-1.6-1.6-1.6c-0.9,0-1.6,0.8-1.6,1.6
		C106.2,295.1,106.9,295.8,107.8,295.8L107.8,295.8z"/>
	<path class="st6" d="M120.2,275c0.9,0,1.6-0.7,1.6-1.6c0-0.9-0.8-1.6-1.6-1.6c-1,0-1.6,0.8-1.6,1.6
		C118.5,274.3,119.2,275,120.2,275L120.2,275z"/>
	<path class="st6" d="M112.7,259.3c0.9,0,1.6-0.8,1.6-1.6c0-1-0.8-1.6-1.6-1.6c-1,0-1.6,0.7-1.6,1.6
		C111,258.6,111.7,259.3,112.7,259.3L112.7,259.3z"/>
	<path class="st6" d="M141.6,274.7c0.9,0,1.6-0.8,1.6-1.6c0-1-0.8-1.6-1.6-1.6c-1,0-1.6,0.7-1.6,1.6
		C139.9,274,140.6,274.7,141.6,274.7L141.6,274.7z"/>
	<path class="st5" d="M135.3,261.2c1,0,1.6-0.7,1.6-1.6c0-0.9-0.7-1.6-1.6-1.6c-0.9,0-1.6,0.8-1.6,1.6
		C133.7,260.5,134.5,261.2,135.3,261.2L135.3,261.2z"/>
	<path class="st6" d="M137.9,300.6c1,0,1.6-0.7,1.6-1.6c0-0.9-0.7-1.6-1.6-1.6c-0.9,0-1.6,0.8-1.6,1.6
		C136.2,299.9,137,300.6,137.9,300.6L137.9,300.6z"/>
	<path class="st6" d="M183.1,302c1,0,1.7-0.7,1.7-1.6c0-0.9-0.8-1.6-1.7-1.6c-0.9,0-1.6,0.8-1.6,1.6
		C181.5,301.3,182.3,302,183.1,302L183.1,302z"/>
	<path class="st6" d="M166.2,282.2c1,0,1.6-0.7,1.6-1.6c0-0.9-0.7-1.6-1.6-1.6c-0.9,0-1.6,0.8-1.6,1.6
		C164.5,281.5,165.3,282.2,166.2,282.2L166.2,282.2z"/>
	<path class="st6" d="M188.2,258.3c0.9,0,1.6-0.7,1.6-1.6c0-0.9-0.8-1.6-1.6-1.6c-1,0-1.7,0.8-1.7,1.6
		C186.5,257.6,187.3,258.3,188.2,258.3L188.2,258.3z"/>
	<path class="st6" d="M201.4,289.5c1,0,1.6-0.8,1.6-1.6c0-1-0.7-1.6-1.6-1.6c-0.9,0-1.6,0.7-1.6,1.6
		C199.8,288.7,200.5,289.5,201.4,289.5L201.4,289.5z"/>
	<path class="st6" d="M229.5,268.7c0.9,0,1.6-0.7,1.6-1.6c0-0.9-0.8-1.6-1.6-1.6c-1,0-1.6,0.8-1.6,1.6
		C227.8,268,228.5,268.7,229.5,268.7L229.5,268.7z"/>
	<path class="st6" d="M256.8,255.5c0.9,0,1.6-0.8,1.6-1.6c0-1-0.8-1.7-1.6-1.7c-1,0-1.6,0.8-1.6,1.7
		C255.2,254.7,255.9,255.5,256.8,255.5L256.8,255.5z"/>
	<path class="st5" d="M164,265.1c0.9,0,1.6-0.8,1.6-1.7c0-0.9-0.8-1.6-1.6-1.6c-1,0-1.6,0.8-1.6,1.6
		C162.4,264.3,163,265.1,164,265.1L164,265.1z"/>
	<path class="st5" d="M157.7,302.6c1,0,1.6-0.8,1.6-1.6c0-1-0.7-1.6-1.6-1.6c-0.9,0-1.6,0.7-1.6,1.6
		C156,301.9,156.8,302.6,157.7,302.6L157.7,302.6z"/>
	<path class="st5" d="M191.7,279c0.9,0,1.6-0.7,1.6-1.6c0-0.9-0.8-1.6-1.6-1.6c-1,0-1.7,0.8-1.7,1.6C190,278.3,190.8,279,191.7,279
		L191.7,279z"/>
	<path class="st5" d="M211.8,261.1c1,0,1.6-0.7,1.6-1.6c0-0.9-0.7-1.6-1.6-1.6c-0.9,0-1.6,0.8-1.6,1.6
		C210.2,260.4,210.9,261.1,211.8,261.1L211.8,261.1z"/>
	<path class="st5" d="M225,287.8c0.9,0,1.6-0.8,1.6-1.6c0-1-0.8-1.6-1.6-1.6c-1,0-1.6,0.7-1.6,1.6C223.4,287,224.1,287.8,225,287.8
		L225,287.8z"/>
	<path class="st5" d="M257.4,269.3c0.9,0,1.6-0.8,1.6-1.6c0-1-0.8-1.7-1.6-1.7c-1,0-1.6,0.8-1.6,1.7
		C255.8,268.5,256.5,269.3,257.4,269.3L257.4,269.3z"/>
	<path class="st5" d="M241.4,257.6c0.9,0,1.6-0.7,1.6-1.6c0-0.9-0.8-1.6-1.6-1.6c-1,0-1.6,0.8-1.6,1.6
		C239.8,256.9,240.5,257.6,241.4,257.6L241.4,257.6z"/>
	<path class="st5" d="M147.8,288.1c1,0,1.6-0.8,1.6-1.6c0-1-0.7-1.6-1.6-1.6c-0.9,0-1.6,0.7-1.6,1.6
		C146.2,287.3,146.9,288.1,147.8,288.1L147.8,288.1z"/>
	<path class="st5" d="M120.2,287c0.9,0,1.6-0.8,1.6-1.6c0-1-0.8-1.6-1.6-1.6c-1,0-1.6,0.7-1.6,1.6C118.5,286.2,119.2,287,120.2,287
		L120.2,287z"/>
	<rect x="121" y="100.5" class="st7" width="72.6" height="143.4"/>
	<rect x="127.5" y="107.2" class="st8" width="59.6" height="130.1"/>
	<polygon class="st9" points="151,116.9 163.5,116.9 163.5,125.8 172.3,125.8 172.3,138.3 163.5,138.3 163.5,147.2 151,147.2 
		151,138.3 142.1,138.3 142.1,125.8 151,125.8 	"/>
	<rect x="138.9" y="180.9" class="st10" width="36.7" height="63"/>
	<rect x="133.2" y="236.4" class="st8" width="48.6" height="4"/>
	<rect x="133.2" y="240.4" class="st10" width="48.6" height="4.1"/>
	<rect x="133.2" y="244.4" class="st8" width="48.6" height="4"/>
	<rect x="68.7" y="120.5" class="st8" width="52.3" height="123.4"/>
	<rect x="68.7" y="129.1" class="st7" width="52.3" height="18.3"/>
	<rect x="75.4" y="153.9" class="st10" width="9.4" height="24.9"/>
	<rect x="90.7" y="153.9" class="st10" width="9.4" height="24.9"/>
	<rect x="106.1" y="153.9" class="st10" width="9.4" height="24.9"/>
	<rect x="75.4" y="187.7" class="st10" width="9.4" height="24.9"/>
	<rect x="90.7" y="187.7" class="st10" width="9.4" height="24.9"/>
	<rect x="106.1" y="187.7" class="st10" width="9.4" height="24.9"/>
	<rect x="68.7" y="218.9" class="st7" width="52.3" height="18.3"/>
	<rect x="193.6" y="120.5" class="st8" width="52.3" height="123.4"/>
	<rect x="193.6" y="129.1" class="st7" width="52.3" height="18.3"/>
	<rect x="229.6" y="153.9" class="st10" width="9.5" height="24.9"/>
	<rect x="214.3" y="153.9" class="st10" width="9.5" height="24.9"/>
	<rect x="199" y="153.9" class="st10" width="9.5" height="24.9"/>
	<rect x="229.6" y="187.7" class="st10" width="9.5" height="24.9"/>
	<rect x="214.3" y="187.7" class="st10" width="9.5" height="24.9"/>
	<rect x="199" y="187.7" class="st10" width="9.5" height="24.9"/>
	<rect x="193.6" y="218.9" class="st7" width="52.3" height="18.3"/>
	<rect x="114.6" y="172.2" class="st11" width="85.1" height="12.6"/>
	<path class="st3" d="M168.1,61.1c-4.1,0-7.4-3.6-7.4-7.9c0-4.1,2.9-7.4,6.7-7.8c-0.1-0.3-0.1-0.5-0.1-0.8c0-3.3,2.6-6,5.7-6
		c1,0,1.8,0.2,2.6,0.6c1.3-4.8,5.9-8.4,11.5-8.4c6.4,0,11.6,4.8,11.8,10.7c5.5,0.5,9.9,4.8,9.9,10.2c0,4.5-3.1,8.3-7.5,9.7h-6.8
		L168.1,61.1z"/>
</g>
<g>
</g>
<g>
</g>
<g>
</g>
<g>
</g>
<g>
</g>
<g>
</g>
</svg>
