<?xml version="1.0" encoding="utf-8"?>
<!-- Generator: Adobe Illustrator 20.1.0, SVG Export Plug-In . SVG Version: 6.00 Build 0)  -->
<svg version="1.1" id="Layer_1" xmlns="http://www.w3.org/2000/svg" xmlns:xlink="http://www.w3.org/1999/xlink" x="0px" y="0px"
	 viewBox="0 0 377 387.2" style="enable-background:new 0 0 377 387.2;" xml:space="preserve">
<style type="text/css">
	.st0{display:none;}
	.st1{display:inline;fill:#FFFFFF;}
	.st2{fill:#F05352;}
	.st3{fill:#424255;}
	.st4{fill:#5CCAEB;}
	.st5{fill:#FFFFFF;}
	.st6{fill:#5CCAEB;stroke:#FFFFFF;stroke-width:2;stroke-miterlimit:10;}
</style>
<g>
	<g class="st0">
		<path class="st1" d="M282,194.8c0,13.3-10.8,24.1-24.1,24.1h-0.7c-13.3,0-24.1-10.8-24.1-24.1v-43.7c0-13.3,10.8-24.1,24.1-24.1
			h0.7c13.3,0,24.1,10.8,24.1,24.1V194.8z"/>
	</g>
	<g>
		<path class="st2" d="M256.8,127.1L256.8,127.1c13.3,0,24.2,10.8,24.2,24.1v43.9c0,13.3-10.8,24.1-24.2,24.1l0,0"/>
	</g>
	<g>
		<path class="st3" d="M290,287.9c0,4.2-4.8,8-10.4,8h-45.3c-5.5,0-10.3-3.8-10.3-8V161c0-4.2,4.8-8.1,10.3-8.1h45.3
			c5.5,0,10.4,3.9,10.4,8.1V287.9z"/>
	</g>
	<g>
		<path class="st4" d="M319,338c0,6.1-4.9,11-11,11H11c-6.1,0-11-4.9-11-11V174.9c0-6.1,4.9-11,11-11H308c6.1,0,11,4.9,11,11V338z"
			/>
	</g>
	<g>
		<path class="st4" d="M377,252.2c0-6-3-14.7-7-19.3l-52.1-60.2c-4-4.6-7.4-3.4-7.7,2.7l-7.7,162.5c-0.3,6,4.4,11,10.5,11h53.4
			c6,0,10.5-5.1,10.5-11.1V252.2z"/>
	</g>
	<g>
		<polygon class="st5" points="142,220.9 123,220.9 123,201.9 90,201.9 90,220.9 71,220.9 71,253.9 90,253.9 90,273.9 123,273.9 
			123,253.9 142,253.9 		"/>
	</g>
	<g>
		<rect x="213" y="179.9" class="st5" width="37" height="74"/>
	</g>
	<g>
		<polygon class="st5" points="342.3,253.9 266,253.9 266,179.9 302.8,179.9 342.4,232.2 		"/>
	</g>
	<g>
		<circle class="st5" cx="74.6" cy="348.8" r="28.5"/>
		<path class="st3" d="M74.6,387.2c-21.2,0-38.4-17.2-38.4-38.4c0-21.2,17.2-38.4,38.4-38.4c21.2,0,38.4,17.2,38.4,38.4
			C113,369.9,95.8,387.2,74.6,387.2z M74.6,330.1c-10.3,0-18.7,8.4-18.7,18.7c0,10.3,8.4,18.7,18.7,18.7c10.3,0,18.7-8.4,18.7-18.7
			C93.2,338.5,84.9,330.1,74.6,330.1z"/>
	</g>
	<g>
		<circle class="st5" cx="298.4" cy="348.8" r="28.5"/>
		<path class="st3" d="M298.4,387.2c-21.2,0-38.4-17.2-38.4-38.4c0-21.2,17.2-38.4,38.4-38.4c21.2,0,38.4,17.2,38.4,38.4
			C336.8,369.9,319.6,387.2,298.4,387.2z M298.4,330.1c-10.3,0-18.7,8.4-18.7,18.7c0,10.3,8.4,18.7,18.7,18.7
			c10.3,0,18.7-8.4,18.7-18.7C317.1,338.5,308.7,330.1,298.4,330.1z"/>
	</g>
</g>
<g>
	<path d="M4.8,89V16.5c0-2.8,0.8-5.1,2.4-6.8c1.6-1.7,3.6-2.6,6.1-2.6c2.5,0,4.5,0.9,6.1,2.6c1.6,1.7,2.4,4,2.4,6.8v23H22
		c3.2-3.9,8.4-5.9,15.4-5.9c6.8,0,12.4,2,16.7,6.1c4.3,4.1,6.5,9.6,6.5,16.7V89c0,2.8-0.8,5.1-2.4,6.8c-1.6,1.7-3.6,2.6-6.1,2.6
		c-2.5,0-4.5-0.9-6.1-2.6c-1.6-1.7-2.4-4-2.4-6.8V59.4c0-3.8-1-6.6-3.1-8.6c-2.1-2-4.7-3-8-3c-3.4,0-6,1.1-7.9,3.3
		c-1.9,2.2-2.9,5-2.9,8.3V89c0,2.8-0.8,5.1-2.4,6.8c-1.6,1.7-3.6,2.6-6.1,2.6c-2.5,0-4.5-0.9-6.1-2.6C5.6,94.1,4.8,91.8,4.8,89z"/>
	<path d="M67.7,66.5c0-8.9,2.9-16.5,8.6-23.1c5.8-6.5,13-9.8,21.7-9.8c8.7,0,16,3.3,21.7,9.8c5.8,6.5,8.6,14.2,8.6,23.1
		c0,9-2.8,16.7-8.5,23.1c-5.7,6.4-12.9,9.5-21.9,9.5c-8.9,0-16.2-3.2-21.9-9.5C70.6,83.2,67.7,75.5,67.7,66.5z M84.7,66.5
		c0,4.5,1.2,8.5,3.5,11.9c2.3,3.5,5.6,5.2,9.9,5.2s7.6-1.7,9.9-5.2c2.3-3.5,3.5-7.4,3.5-11.9c0-4.6-1.2-8.6-3.5-12.1
		c-2.3-3.5-5.6-5.2-9.9-5.2s-7.6,1.7-9.9,5.2C85.9,57.9,84.7,61.9,84.7,66.5z"/>
	<path d="M131.6,41.2c0-1.9,0.8-3.5,2.4-4.8c1.6-1.3,3.6-2,6.1-2c2,0,3.8,0.6,5.2,1.8c1.4,1.2,2.4,2.9,2.8,4.9l9.8,32.4h0.2
		l9.9-31.7c1.4-4.9,4.3-7.4,8.6-7.4s7.2,2.5,8.6,7.4l9.9,31.7h0.2l9.8-32.4c0.5-2,1.4-3.7,2.8-4.9c1.4-1.2,3.2-1.8,5.2-1.8
		c2.5,0,4.6,0.7,6.1,2.2c1.6,1.5,2.3,3.5,2.3,6c0,0.8-0.6,2.9-1.7,6.3l-14.5,40.9c-2,5.7-5.4,8.6-10.2,8.6c-4.9,0-8.1-2.6-9.8-7.9
		l-8.7-27.3h-0.2l-8.7,27.3c-1.6,5.2-4.9,7.9-9.8,7.9c-4.8,0-8.2-2.9-10.2-8.6l-14.4-40.6C132.2,45.7,131.6,43.1,131.6,41.2z"/>
	<path d="M223.5,66.5c0-8.8,2.9-16.5,8.7-23c5.8-6.5,13-9.8,21.7-9.8c8.7,0,15.9,3.2,21.7,9.7c5.8,6.5,8.7,13.5,8.7,21.1
		c0,5-2.5,7.5-7.4,7.6h-36.1c0.5,4,2.3,7,5.3,9.1c3,2.1,6.6,3.1,10.7,3.1c3.2,0,6.9-1.1,11.2-3.4c4.2-2.3,6.9-3.4,8-3.4
		c1.8,0,3.4,0.7,4.8,2.2s2.1,3.2,2.1,5.1c0,3.5-3,6.8-9,9.8c-6,3-12.2,4.5-18.7,4.5c-9.4,0-17.1-3.1-23-9.2
		C226.4,83.8,223.5,76,223.5,66.5z M240.4,60.7h26.9c-0.5-3.8-1.9-6.9-4.2-9.3c-2.4-2.4-5.5-3.6-9.3-3.6c-3.7,0-6.7,1.2-9.2,3.7
		C242.2,54,240.8,57.1,240.4,60.7z"/>
	<path d="M287.9,86c0-1.6,0.7-3.2,2-4.9c1.3-1.7,3.1-2.6,5.1-2.6c2,0,4.7,1,8.1,2.9c3.4,1.9,6.4,2.9,9.1,2.9c2.5,0,4.2-0.4,5.1-1.2
		c0.9-0.8,1.4-2,1.4-3.6c0-1.4-1-2.7-3-3.8c-2-1.1-4.5-2.2-7.4-3.2c-2.9-1.1-5.8-2.3-8.8-3.6c-3-1.4-5.5-3.4-7.7-6
		c-2.1-2.6-3.2-5.7-3.2-9.3c0-5.9,2.1-10.7,6.4-14.3c4.3-3.6,9.8-5.5,16.5-5.5c3.1,0,6.1,0.4,9.2,1.2c3.1,0.8,5.8,2.2,8.3,4.2
		c2.4,2,3.6,4.2,3.6,6.8c0,2-0.6,3.7-1.9,5.2c-1.3,1.5-2.9,2.3-4.8,2.3c-0.9,0-3-0.8-6.6-2.5c-3.5-1.6-6.3-2.5-8.3-2.5
		c-1.6,0-2.9,0.4-4,1.2c-1.1,0.8-1.6,2-1.6,3.5c0,1.4,1,2.7,3,3.8c2,1.1,4.5,2.2,7.4,3.2c2.9,1,5.8,2.2,8.8,3.6c3,1.4,5.5,3.4,7.7,6
		c2.1,2.6,3.2,5.7,3.2,9.3c0,5.7-2.2,10.5-6.6,14.3c-4.4,3.8-10.3,5.7-17.5,5.7c-5.2,0-10.5-1.3-15.8-3.9
		C290.6,92.7,287.9,89.6,287.9,86z"/>
	<path d="M333.3,42.4c0-2.1,0.7-3.9,2.1-5.3c1.4-1.4,3.2-2.1,5.3-2.1h3.8V24.9c0-2.8,0.8-5.1,2.4-6.9c1.6-1.7,3.6-2.6,6.1-2.6
		c2.5,0,4.5,0.9,6.1,2.6s2.4,4,2.4,6.8v10.1h4.8c2.3,0,4.3,0.6,5.8,1.8c1.5,1.2,2.3,3.1,2.3,5.6s-0.8,4.4-2.3,5.6s-3.5,1.8-5.8,1.8
		h-4.8v39.1c0,2.8-0.8,5.1-2.4,6.8s-3.6,2.6-6.1,2.6c-2.5,0-4.5-0.9-6.1-2.6c-1.6-1.7-2.4-4-2.4-6.8V49.9h-3.8c-2.3,0-4.1-0.7-5.4-2
		C334,46.5,333.3,44.7,333.3,42.4z"/>
</g>
<g>
	<path class="st6" d="M109.2,120.9V75c0-1.8,0.5-3.2,1.5-4.3c1-1.1,2.3-1.6,3.9-1.6c1.6,0,2.9,0.5,3.9,1.6c1,1.1,1.5,2.5,1.5,4.3
		v14.6h0.1c2-2.5,5.3-3.7,9.7-3.7c4.3,0,7.8,1.3,10.6,3.9c2.7,2.6,4.1,6.1,4.1,10.6v20.5c0,1.8-0.5,3.2-1.5,4.3
		c-1,1.1-2.3,1.6-3.9,1.6c-1.6,0-2.9-0.5-3.9-1.6c-1-1.1-1.5-2.5-1.5-4.3v-18.7c0-2.4-0.7-4.2-2-5.5c-1.3-1.3-3-1.9-5-1.9
		c-2.1,0-3.8,0.7-5,2.1c-1.2,1.4-1.8,3.1-1.8,5.3v18.7c0,1.8-0.5,3.2-1.5,4.3c-1,1.1-2.3,1.6-3.9,1.6c-1.6,0-2.9-0.5-3.9-1.6
		C109.7,124.1,109.2,122.7,109.2,120.9z"/>
	<path class="st6" d="M149,106.7c0-5.6,1.8-10.5,5.5-14.6c3.6-4.1,8.2-6.2,13.7-6.2c5.5,0,10.1,2.1,13.7,6.2c3.6,4.1,5.5,9,5.5,14.6
		c0,5.7-1.8,10.6-5.4,14.6c-3.6,4-8.2,6-13.8,6c-5.7,0-10.3-2-13.8-6C150.7,117.2,149,112.4,149,106.7z M159.7,106.7
		c0,2.8,0.7,5.4,2.2,7.5c1.5,2.2,3.6,3.3,6.3,3.3s4.8-1.1,6.3-3.3c1.5-2.2,2.2-4.7,2.2-7.5c0-2.9-0.7-5.4-2.2-7.6
		c-1.5-2.2-3.6-3.3-6.3-3.3s-4.8,1.1-6.3,3.3C160.4,101.2,159.7,103.8,159.7,106.7z"/>
	<path class="st6" d="M190.4,119c0-1,0.4-2,1.3-3.1c0.9-1.1,1.9-1.6,3.2-1.6c1.3,0,3,0.6,5.1,1.8s4.1,1.8,5.8,1.8
		c1.6,0,2.6-0.2,3.2-0.7c0.6-0.5,0.9-1.3,0.9-2.3c0-0.9-0.6-1.7-1.9-2.4c-1.3-0.7-2.8-1.4-4.7-2.1c-1.8-0.7-3.7-1.4-5.5-2.3
		c-1.9-0.9-3.5-2.1-4.8-3.8c-1.4-1.7-2-3.6-2-5.9c0-3.7,1.4-6.7,4.1-9c2.7-2.3,6.2-3.5,10.5-3.5c1.9,0,3.9,0.3,5.8,0.8
		c1.9,0.5,3.7,1.4,5.2,2.6c1.5,1.2,2.3,2.7,2.3,4.3c0,1.2-0.4,2.3-1.2,3.3s-1.8,1.5-3,1.5c-0.5,0-1.9-0.5-4.1-1.6
		c-2.2-1-4-1.6-5.2-1.6c-1,0-1.9,0.2-2.5,0.7c-0.7,0.5-1,1.2-1,2.2c0,0.9,0.6,1.7,1.9,2.4c1.3,0.7,2.8,1.4,4.7,2
		c1.8,0.6,3.7,1.4,5.5,2.3c1.9,0.9,3.5,2.2,4.8,3.8c1.3,1.6,2,3.6,2,5.9c0,3.6-1.4,6.6-4.2,9c-2.8,2.4-6.5,3.6-11.1,3.6
		c-3.3,0-6.6-0.8-10-2.4S190.4,121.3,190.4,119z"/>
	<path class="st6" d="M223.5,136.7V92.3c0-1.8,0.5-3.2,1.5-4.3c1-1.1,2.3-1.6,3.9-1.6c2.9,0,4.7,1.5,5.4,4.5
		c0.9-1.6,2.4-2.8,4.2-3.7c1.9-0.8,3.9-1.3,5.9-1.3c5.4,0,9.6,2.1,12.7,6.4c3.1,4.2,4.6,9.2,4.6,14.9c0,5.3-1.7,10-5,14
		c-3.3,4.1-7.5,6.1-12.7,6.1c-3.7,0-7-1.2-9.8-3.7v13.1c0,1.8-0.5,3.2-1.5,4.3c-1,1.1-2.3,1.6-3.9,1.6c-1.6,0-2.9-0.5-3.9-1.6
		C224,139.9,223.5,138.5,223.5,136.7z M234.3,106.3c0,2.9,0.7,5.5,2.2,7.8c1.4,2.3,3.5,3.4,6.2,3.4c2.6,0,4.6-1.1,6.1-3.3
		c1.5-2.2,2.3-4.7,2.3-7.5c0-2.8-0.7-5.4-2.2-7.6c-1.5-2.2-3.5-3.3-6.1-3.3c-2.7,0-4.8,1-6.2,3.1C235,100.9,234.3,103.4,234.3,106.3
		z"/>
	<path class="st6" d="M265.4,76.2c0-1.5,0.6-2.9,1.8-4.1c1.2-1.2,2.6-1.8,4.2-1.8c1.6,0,3,0.6,4.2,1.8c1.2,1.2,1.8,2.6,1.8,4.1
		c0,1.7-0.6,3.1-1.7,4.4c-1.2,1.2-2.6,1.8-4.3,1.8c-1.6,0-3-0.6-4.2-1.9C266,79.3,265.4,77.8,265.4,76.2z M266.1,120.9V92.3
		c0-1.8,0.5-3.2,1.5-4.3c1-1.1,2.3-1.6,3.9-1.6c1.6,0,2.9,0.5,3.9,1.6c1,1.1,1.5,2.5,1.5,4.3v28.6c0,1.8-0.5,3.2-1.5,4.3
		c-1,1.1-2.3,1.6-3.9,1.6c-1.6,0-2.9-0.5-3.9-1.6C266.6,124.1,266.1,122.7,266.1,120.9z"/>
	<path class="st6" d="M278.3,91.4c0-1.3,0.4-2.4,1.3-3.3c0.9-0.9,2-1.3,3.3-1.3h2.4v-6.4c0-1.8,0.5-3.2,1.5-4.3
		c1-1.1,2.3-1.6,3.9-1.6s2.9,0.6,3.9,1.7c1,1.1,1.5,2.5,1.5,4.3v6.4h3.1c1.5,0,2.7,0.4,3.7,1.2c1,0.8,1.5,1.9,1.5,3.5
		s-0.5,2.8-1.5,3.5c-1,0.8-2.2,1.2-3.7,1.2h-3.1v24.7c0,1.8-0.5,3.2-1.5,4.3s-2.3,1.6-3.9,1.6s-2.9-0.5-3.9-1.6
		c-1-1.1-1.5-2.5-1.5-4.3V96.2H283c-1.4,0-2.6-0.4-3.4-1.3C278.7,94,278.3,92.9,278.3,91.4z"/>
	<path class="st6" d="M303.2,106.7c0-5.9,1.7-10.8,5.2-14.8c3.5-4,7.6-6,12.5-6c4.5,0,7.9,1.6,10.2,4.9c0.1-1.3,0.7-2.3,1.7-3.2
		c1-0.8,2.1-1.3,3.4-1.3c1.2,0,2.2,0.2,2.9,0.6s1.3,1.1,1.6,1.9c0.3,0.8,0.4,1.6,0.5,2.1c0.1,0.6,0.1,1.4,0.1,2.3v26.5
		c0,1,0,1.8-0.1,2.3c-0.1,0.6-0.3,1.3-0.5,2.1c-0.3,0.8-0.8,1.5-1.6,1.9c-0.8,0.4-1.8,0.6-2.9,0.6c-1.5,0-2.6-0.4-3.4-1.1
		s-1.4-1.9-1.7-3.4c-2.8,3.3-6.2,5-10.2,5c-5.1,0-9.3-1.9-12.6-5.8S303.2,112.7,303.2,106.7z M313.9,106.7c0,2.8,0.7,5.4,2.2,7.5
		c1.5,2.2,3.6,3.3,6.3,3.3c2.6,0,4.7-1.1,6.1-3.3s2.2-4.7,2.2-7.5c0-2.9-0.7-5.4-2.2-7.6s-3.5-3.3-6.1-3.3c-2.7,0-4.8,1.1-6.3,3.3
		S313.9,103.8,313.9,106.7z"/>
	<path class="st6" d="M347.3,120.9V75c0-1.8,0.5-3.2,1.5-4.3c1-1.1,2.3-1.6,3.9-1.6c1.6,0,2.9,0.5,3.9,1.6c1,1.1,1.5,2.5,1.5,4.3
		v45.8c0,1.8-0.5,3.2-1.5,4.3c-1,1.1-2.3,1.6-3.9,1.6c-1.6,0-2.9-0.5-3.9-1.6C347.8,124.1,347.3,122.7,347.3,120.9z"/>
</g>
<g>
</g>
<g>
</g>
<g>
</g>
<g>
</g>
<g>
</g>
<g>
</g>
</svg>
